<?xml version="1.0" standalone="no"?>
<!DOCTYPE svg PUBLIC "-//W3C//DTD SVG 20010904//EN"
 "http://www.w3.org/TR/2001/REC-SVG-20010904/DTD/svg10.dtd">
<svg version="1.0" xmlns="http://www.w3.org/2000/svg"
 width="1600.000000pt" height="1530.000000pt" viewBox="0 0 1600.000000 1530.000000"
 preserveAspectRatio="xMidYMid meet">
<metadata>
Created by potrace 1.16, written by Peter Selinger 2001-2019
</metadata>
<g transform="translate(0.000000,1530.000000) scale(0.100000,-0.100000)"
fill="#000000" stroke="none">
<path d="M68 15269 c-47 -22 -68 -38 -68 -50 0 -18 89 -260 543 -1489 129
-349 411 -1110 625 -1690 215 -580 656 -1775 982 -2655 1057 -2859 1049 -2836
1043 -2877 -5 -33 -3 -38 15 -38 17 0 28 -21 64 -120 23 -66 48 -120 54 -120
6 0 19 45 29 101 11 59 24 103 32 106 7 3 43 0 80 -6 128 -22 123 -19 117 -50
-5 -22 -1 -31 19 -44 l24 -16 7 -573 c12 -974 28 -1270 81 -1486 62 -253 146
-449 311 -723 183 -304 585 -874 616 -874 4 0 32 38 61 84 l54 83 219 -255
c120 -141 225 -256 232 -256 8 -1 12 17 12 60 l0 61 85 -106 c48 -60 105 -145
130 -194 52 -104 137 -200 282 -320 130 -107 228 -223 477 -569 64 -89 122
-165 128 -169 10 -6 3 411 -8 481 -3 19 4 10 19 -27 67 -157 160 -258 366
-397 242 -163 290 -228 362 -494 49 -181 122 -303 249 -419 116 -107 318 -212
430 -225 l45 -5 70 74 c38 40 144 150 235 243 164 168 166 171 189 245 120
384 347 783 489 859 20 11 21 9 17 -16 -2 -16 -7 -149 -10 -298 -3 -148 -8
-350 -12 -449 -4 -131 -3 -178 5 -175 6 2 90 99 187 214 l175 210 0 53 0 52
44 0 c41 0 48 4 82 45 81 99 312 521 422 773 26 59 36 72 54 72 42 0 88 39
134 113 195 313 458 783 507 905 l17 42 55 0 55 0 0 108 c0 59 4 112 8 117 4
6 22 22 41 35 96 67 176 282 212 575 10 85 17 107 44 145 17 25 82 160 143
300 l112 255 0 151 0 150 792 655 c435 360 802 662 814 672 16 12 96 29 276
57 139 22 264 43 278 45 21 5 30 19 54 83 27 72 139 350 401 992 104 253 361
883 1500 3670 223 547 500 1226 616 1507 115 282 209 521 208 530 0 12 -26 31
-79 58 -44 21 -81 37 -83 35 -3 -3 -463 -705 -1022 -1560 -560 -855 -1185
-1809 -1388 -2120 -204 -311 -390 -595 -414 -632 -43 -66 -43 -67 -43 -158 l0
-92 -94 -112 -93 -111 -844 -490 c-464 -269 -859 -498 -876 -508 -26 -15 -34
-16 -38 -5 -2 7 -47 128 -98 268 -275 743 -546 1347 -750 1670 -67 106 -152
214 -209 265 -77 69 -88 72 -143 42 l-45 -26 -93 124 -93 123 -13 109 c-28
251 -94 624 -147 835 -13 53 -24 99 -24 102 0 3 20 6 45 6 25 0 45 3 45 7 0 4
-36 44 -80 89 -44 45 -80 86 -80 92 0 6 -8 12 -19 14 -10 2 -140 118 -288 258
-250 237 -274 257 -320 267 -336 78 -731 5 -1040 -193 -29 -19 -53 -31 -53
-27 0 4 -17 -9 -38 -28 -20 -20 -54 -49 -75 -64 -21 -15 -36 -33 -34 -39 2 -6
-14 -36 -35 -67 -48 -71 -75 -133 -88 -199 -6 -29 -26 -91 -46 -139 -214 -508
-244 -631 -214 -866 9 -79 52 -281 75 -356 3 -10 -11 -26 -41 -48 -25 -17 -48
-31 -50 -29 -2 2 -16 36 -33 76 -51 125 -112 222 -191 303 -76 77 -175 139
-222 139 -30 0 -143 -58 -243 -125 -133 -89 -243 -182 -386 -327 l-136 -138
-472 0 c-444 0 -474 -1 -523 -20 -28 -11 -68 -33 -89 -49 l-37 -30 -7 337
c-10 449 4 1180 31 1610 4 62 3 102 -3 102 -8 0 -132 -160 -566 -727 -5 -7
-22 -61 -38 -120 -107 -395 -192 -909 -244 -1468 -14 -154 -29 -310 -33 -347
l-7 -66 -72 31 -73 31 0 77 0 77 -591 1069 c-325 587 -718 1298 -874 1578
-155 281 -520 940 -811 1465 -290 525 -697 1261 -904 1635 -279 503 -381 681
-396 683 -10 1 -49 -12 -86 -29z m1562 -2809 c832 -1504 1621 -2930 1753
-3169 139 -252 244 -451 248 -475 5 -23 9 -106 10 -186 1 -80 4 -176 8 -215
l6 -70 25 123 c13 67 27 128 31 134 5 8 43 -4 126 -40 65 -29 121 -52 124 -52
4 0 9 46 13 103 34 511 94 1016 171 1423 43 226 121 541 143 575 26 41 365
479 368 476 2 -1 -2 -124 -8 -272 -10 -279 -3 -1522 10 -1690 l7 -90 34 0 35
0 12 71 c14 82 30 118 76 160 75 72 53 69 566 72 l462 3 0 -46 c0 -36 -7 -55
-32 -90 l-33 -44 -413 -1 c-442 0 -441 0 -489 -52 -31 -33 -60 -103 -75 -181
l-13 -67 -57 0 -58 0 5 -37 c2 -21 10 -81 16 -133 31 -273 83 -507 139 -625
21 -44 45 -88 53 -98 8 -9 398 -243 866 -520 l852 -502 30 -70 c17 -39 174
-423 350 -854 176 -431 325 -794 331 -805 6 -12 21 -33 34 -47 23 -24 26 -45
64 -434 22 -224 38 -410 36 -413 -4 -4 -516 372 -1133 830 l-132 99 -48 102
c-264 567 -491 947 -601 1006 -24 13 -24 12 -43 -245 l-11 -151 27 -54 c41
-79 114 -239 111 -239 -2 0 -415 304 -917 676 -894 661 -914 675 -919 647 -12
-69 -107 -20 -149 78 -39 90 -52 175 -58 380 -5 188 6 438 28 593 22 163 -4
47 -90 -391 -51 -257 -96 -479 -100 -493 -6 -19 -14 12 -35 125 -15 83 -31
164 -36 180 -4 17 -318 757 -698 1645 -1420 3324 -2181 5107 -2202 5160 -12
30 -91 242 -175 470 -85 228 -159 429 -165 445 -6 17 -7 26 -2 20 5 -5 690
-1241 1522 -2745z m14236 478 c-13 -29 -628 -1308 -1367 -2843 -874 -1815
-1345 -2782 -1347 -2767 -2 13 -22 276 -45 585 -30 398 -41 596 -37 677 l5
115 989 1510 c544 831 1159 1769 1366 2085 437 668 452 690 456 690 2 0 -7
-24 -20 -52z m-6406 -3140 l502 -672 189 -550 189 -549 0 -151 c0 -83 -7 -221
-15 -306 -13 -152 -16 -164 -164 -678 -83 -287 -151 -526 -151 -531 0 -11 140
-181 149 -181 16 0 250 686 336 980 29 102 61 224 70 273 10 48 21 87 25 87
14 0 42 -39 56 -77 25 -72 17 -141 -41 -350 -30 -109 -106 -385 -169 -613 -63
-228 -119 -434 -125 -457 l-12 -43 -54 0 c-54 0 -55 0 -55 -30 0 -16 -20 -111
-45 -211 -25 -100 -43 -184 -41 -187 3 -2 28 4 56 13 70 23 183 101 256 177
l61 63 157 582 c87 319 162 602 169 628 l12 47 212 121 c116 67 575 334 1020
592 l810 470 57 70 c31 39 71 87 89 108 l32 38 -3 -53 c-2 -29 -25 -335 -51
-679 l-47 -627 -46 -53 c-25 -30 -76 -85 -113 -124 l-66 -70 4 43 c3 23 2 42
-2 42 -3 0 -327 -252 -720 -561 -392 -308 -715 -558 -717 -556 -2 2 6 37 17
78 32 114 14 203 -45 231 -53 24 -153 -64 -267 -234 -48 -71 -76 -129 -131
-277 -38 -102 -74 -192 -80 -198 -6 -7 -212 -171 -458 -364 l-447 -352 -133
-491 c-73 -270 -139 -502 -148 -516 -18 -29 -170 -211 -321 -385 -137 -158
-301 -324 -379 -387 l-64 -51 -95 94 c-188 186 -359 416 -466 626 -110 218
-103 182 -142 720 -60 823 -107 1346 -141 1576 -16 105 -16 109 3 130 428 479
1108 1167 1153 1167 42 0 315 -276 464 -469 65 -84 236 -339 236 -353 0 -4 36
-8 80 -8 l81 0 -61 72 c-33 39 -60 77 -60 82 0 6 70 297 156 646 138 566 155
642 151 700 -2 36 -12 81 -22 100 -10 19 -163 222 -340 450 -176 228 -359 465
-405 525 -185 242 -303 390 -310 390 -4 0 -112 -113 -241 -251 -316 -338 -832
-888 -887 -946 l-45 -47 1 -163 c1 -90 7 -477 13 -861 l12 -699 -85 -85 -84
-84 -114 233 -114 233 27 620 c15 341 30 649 33 685 l5 65 -125 78 c-274 170
-453 328 -432 382 8 21 316 424 469 612 537 666 993 1120 1328 1323 45 28 86
50 90 50 4 0 233 -302 509 -672z m-4145 -4506 l310 -211 53 -143 c65 -177 131
-393 183 -603 42 -171 93 -434 86 -441 -8 -9 -130 98 -244 213 -358 362 -618
814 -733 1272 -43 172 -43 183 3 149 17 -13 172 -119 342 -236z m5539 -1023
c-58 -133 -121 -262 -139 -288 -29 -41 -34 -59 -50 -176 -22 -166 -64 -334
-103 -411 -28 -55 -60 -91 -123 -134 -18 -13 -24 -31 -32 -108 l-11 -92 -32 0
c-38 0 -42 -5 -79 -95 -57 -141 -158 -322 -489 -879 -42 -70 -68 -97 -83 -82
-4 4 -10 35 -13 69 l-5 62 -60 -145 c-105 -255 -278 -594 -402 -787 l-53 -83
-50 0 c-39 0 -50 4 -50 16 0 56 48 200 160 479 206 514 524 1352 623 1645 14
41 93 263 176 492 83 229 153 428 157 442 4 16 41 54 102 103 168 135 555 455
607 501 l50 45 3 -166 2 -166 -106 -242z m-4452 275 c105 -71 189 -140 330
-272 103 -97 184 -178 179 -180 -21 -7 -566 281 -663 349 -29 21 -30 24 -26
83 5 59 21 116 33 116 4 0 69 -43 147 -96z m-1667 -376 c-4 -238 -10 -612 -14
-830 l-8 -397 -36 -56 c-21 -30 -41 -55 -45 -55 -4 0 -37 42 -73 93 l-67 92 9
230 c17 471 54 905 110 1278 l11 77 60 0 60 0 -7 -432z m258 252 c37 -47 80
-101 97 -121 l30 -37 -2 -847 -3 -847 -137 158 -137 159 -1 205 c0 544 39
1377 67 1423 6 10 1 16 86 -93z m494 -498 l73 -57 0 -55 c0 -30 -16 -385 -34
-789 -19 -404 -32 -741 -29 -748 12 -31 -12 -6 -103 107 l-96 120 -9 228 c-13
338 13 960 51 1222 5 36 10 69 10 73 0 5 15 -3 33 -18 17 -14 65 -52 104 -83z
m1323 26 c132 -51 273 -87 370 -95 95 -8 183 -46 188 -82 l4 -24 -144 6 c-173
7 -267 29 -393 92 -108 54 -129 70 -149 120 -15 35 -15 37 2 30 9 -4 64 -25
122 -47z m-1008 -291 c68 -51 139 -100 159 -110 43 -20 39 -5 85 -274 41 -244
85 -582 113 -883 43 -447 73 -1015 54 -995 -6 6 -36 45 -67 87 -44 59 -69 107
-105 205 -110 292 -226 513 -332 628 l-37 40 -11 200 c-19 322 -25 773 -12
945 11 157 21 250 27 250 2 0 59 -42 126 -93z m1718 -131 c0 -12 431 -419 481
-454 14 -10 19 -26 19 -65 l0 -52 -173 -1 c-192 -1 -327 -23 -447 -72 -54 -23
-65 -31 -65 -52 0 -37 41 -43 175 -24 92 13 158 16 325 11 116 -4 227 -9 248
-13 l37 -7 0 -97 0 -98 -252 -4 c-234 -5 -260 -7 -353 -31 -106 -29 -138 -50
-150 -99 l-7 -28 65 0 c55 0 70 4 94 24 23 19 45 26 108 31 173 15 445 -27
461 -70 7 -16 -18 -65 -42 -86 -48 -41 -291 -109 -459 -129 -176 -20 -162 -15
-240 -93 -68 -69 -169 -209 -250 -347 -21 -36 -44 -75 -52 -88 l-14 -22 -37
19 c-27 14 -51 42 -89 103 -49 78 -53 89 -63 178 -13 115 -52 296 -88 404 -31
96 -76 159 -117 166 -25 4 -32 12 -39 43 -6 23 -6 51 0 73 9 34 14 37 136 88
151 63 172 76 194 118 36 69 35 82 -7 172 -22 47 -53 135 -69 197 -16 61 -30
113 -32 114 -2 2 -57 -3 -123 -11 -164 -18 -195 -18 -195 2 0 23 34 69 109
147 l64 67 424 0 c356 0 423 -2 423 -14z"/>
<path d="M7753 7870 l-53 -62 0 -574 0 -575 53 -127 52 -127 3 383 c1 210 1
553 0 763 l-3 381 -52 -62z"/>
</g>
</svg>
